<svg width="195" height="32" viewBox="0 0 195 32" fill="none" xmlns="http://www.w3.org/2000/svg">
<g clip-path="url(#clip0_1001_11492)">
<path d="M0.000244141 31.1299V0.312513H6.86981C6.86981 0.295122 6.86981 17.3386 6.86981 17.3386H6.95677L14.0698 8.90382H22.122L14.1742 18.4516L23.5133 31.1473H14.9394L6.86981 20.2256V31.1473H0.000244141V31.1299Z" fill="#014E8B"/>
<mask id="mask0_1001_11492" style="mask-type:luminance" maskUnits="userSpaceOnUse" x="0" y="0" width="24" height="32">
<path d="M0.000488281 31.1299V0.312513H6.87005C6.87005 0.295122 6.87005 17.3386 6.87005 17.3386H6.95701L14.0701 8.90382H22.1222L14.1744 18.4516L23.5135 31.1473H14.9396L6.87005 20.2256V31.1473H0.000488281V31.1299Z" fill="white"/>
</mask>
<g mask="url(#mask0_1001_11492)">
<path d="M31.9134 49.5662C41.6624 49.5662 49.5656 42.4807 49.5656 33.7401C49.5656 24.9996 41.6624 17.9141 31.9134 17.9141C22.1644 17.9141 14.2612 24.9996 14.2612 33.7401C14.2612 42.4807 22.1644 49.5662 31.9134 49.5662Z" fill="#46BEB7"/>
<path fill-rule="evenodd" clip-rule="evenodd" d="M31.9139 18.5221C22.4369 18.5221 14.8705 25.3959 14.8705 33.7395C14.8705 42.083 22.4369 48.9569 31.9139 48.9569C41.391 48.9569 48.9574 42.083 48.9574 33.7395C48.9574 25.3959 41.391 18.5221 31.9139 18.5221ZM13.6531 33.7395C13.6531 24.602 21.893 17.3047 31.9139 17.3047C41.9349 17.3047 50.1748 24.602 50.1748 33.7395C50.1748 42.877 41.9349 50.1743 31.9139 50.1743C21.893 50.1743 13.6531 42.877 13.6531 33.7395Z" fill="white"/>
<path d="M-9.39032 32.176C-1.03401 32.176 5.74012 25.8301 5.74012 18.002C5.74012 10.174 -1.03401 3.82812 -9.39032 3.82812C-17.7466 3.82812 -24.5208 10.174 -24.5208 18.002C-24.5208 25.8301 -17.7466 32.176 -9.39032 32.176Z" fill="#FE8E16"/>
<path fill-rule="evenodd" clip-rule="evenodd" d="M-9.39075 4.43614C-17.4489 4.43614 -23.9125 10.5463 -23.9125 18.0014C-23.9125 25.4564 -17.4489 31.5666 -9.39075 31.5666C-1.33256 31.5666 5.13099 25.4564 5.13099 18.0014C5.13099 10.5463 -1.33256 4.43614 -9.39075 4.43614ZM-25.1299 18.0014C-25.1299 9.80032 -18.0452 3.21875 -9.39075 3.21875C-0.736328 3.21875 6.34838 9.80032 6.34838 18.0014C6.34838 26.2024 -0.736328 32.784 -9.39075 32.784C-18.0452 32.784 -25.1299 26.2024 -25.1299 18.0014Z" fill="white"/>
</g>
<path d="M34.087 14.28C32.3478 14.3496 31.4609 15.5844 31.4609 17.967V31.1148H24.5913V17.967C24.5913 11.6365 27.7565 8.31481 34.087 7.98438H34.4696C40.8 8.29742 43.9652 11.6365 43.9652 17.967V31.1148H37.0957V17.967C37.0957 15.567 36.2261 14.3496 34.4696 14.28H34.087Z" fill="#014E8B"/>
<mask id="mask1_1001_11492" style="mask-type:luminance" maskUnits="userSpaceOnUse" x="24" y="7" width="20" height="25">
<path d="M34.0872 14.2761C32.3481 14.3457 31.4611 15.5805 31.4611 17.9631V31.1109H24.5916V17.9631C24.5916 11.6326 27.7568 8.3109 34.0872 7.98047H34.4698C40.8003 8.29351 43.9655 11.6326 43.9655 17.9631V31.1109H37.0959V17.9631C37.0959 15.5631 36.2263 14.3457 34.4698 14.2761H34.0872Z" fill="white"/>
</mask>
<g mask="url(#mask1_1001_11492)">
<path d="M31.9141 49.5623C41.6632 49.5623 49.5663 42.4767 49.5663 33.7362C49.5663 24.9957 41.6632 17.9102 31.9141 17.9102C22.1651 17.9102 14.262 24.9957 14.262 33.7362C14.262 42.4767 22.1651 49.5623 31.9141 49.5623Z" fill="#46BEB7"/>
<path fill-rule="evenodd" clip-rule="evenodd" d="M31.9137 18.5182C22.4366 18.5182 14.8702 25.392 14.8702 33.7356C14.8702 42.0791 22.4366 48.953 31.9137 48.953C41.3908 48.953 48.9572 42.0791 48.9572 33.7356C48.9572 25.392 41.3908 18.5182 31.9137 18.5182ZM13.6528 33.7356C13.6528 24.5981 21.8927 17.3008 31.9137 17.3008C41.9347 17.3008 50.1746 24.5981 50.1746 33.7356C50.1746 42.8731 41.9347 50.1703 31.9137 50.1703C21.8927 50.1703 13.6528 42.8731 13.6528 33.7356Z" fill="white"/>
</g>
<path d="M86.1566 22.365V8.88672H93.0436V22.365C93.1653 24.4172 94.0175 25.4606 95.6349 25.5128H96.0175C97.7566 25.4606 98.6436 24.2258 98.6436 21.8432V8.88672H105.513V21.8432C105.513 28.1389 102.348 31.478 96.0175 31.8259H95.6349C93.1132 31.6867 91.0958 31.078 89.5827 29.9998C88.0871 31.078 86.0697 31.6867 83.5479 31.8259H83.1653C76.8349 31.478 73.6697 28.1563 73.6697 21.8432V8.88672H80.5392V21.8432C80.5392 24.2432 81.4088 25.4606 83.1653 25.5128H83.5479C85.1653 25.4606 86.0349 24.3998 86.1392 22.365H86.1566Z" fill="#014E8B"/>
<mask id="mask2_1001_11492" style="mask-type:luminance" maskUnits="userSpaceOnUse" x="73" y="8" width="33" height="24">
<path d="M86.1566 22.365V8.88672H93.0436V22.365C93.1653 24.4172 94.0175 25.4606 95.6349 25.5128H96.0175C97.7566 25.4606 98.6436 24.2258 98.6436 21.8432V8.88672H105.513V21.8432C105.513 28.1389 102.348 31.478 96.0175 31.8259H95.6349C93.1132 31.6867 91.0958 31.078 89.5827 29.9998C88.0871 31.078 86.0697 31.6867 83.5479 31.8259H83.1653C76.8349 31.478 73.6697 28.1563 73.6697 21.8432V8.88672H80.5392V21.8432C80.5392 24.2432 81.4088 25.4606 83.1653 25.5128H83.5479C85.1653 25.4606 86.0349 24.3998 86.1392 22.365H86.1566Z" fill="white"/>
</mask>
<g mask="url(#mask2_1001_11492)">
<path d="M112.261 48.3475C122.01 48.3475 129.913 41.2619 129.913 32.5214C129.913 23.7809 122.01 16.6953 112.261 16.6953C102.512 16.6953 94.6086 23.7809 94.6086 32.5214C94.6086 41.2619 102.512 48.3475 112.261 48.3475Z" fill="#46BEB7"/>
<path fill-rule="evenodd" clip-rule="evenodd" d="M112.261 17.3033C102.784 17.3033 95.2176 24.1772 95.2176 32.5207C95.2176 40.8642 102.784 47.7381 112.261 47.7381C121.738 47.7381 129.305 40.8642 129.305 32.5207C129.305 24.1772 121.738 17.3033 112.261 17.3033ZM94.0002 32.5207C94.0002 23.3832 102.24 16.0859 112.261 16.0859C122.282 16.0859 130.522 23.3832 130.522 32.5207C130.522 41.6582 122.282 48.9555 112.261 48.9555C102.24 48.9555 94.0002 41.6582 94.0002 32.5207Z" fill="white"/>
<path d="M70.6959 21.3944C80.4449 21.3944 88.348 14.3088 88.348 5.56827C88.348 -3.17223 80.4449 -10.2578 70.6959 -10.2578C60.9468 -10.2578 53.0437 -3.17223 53.0437 5.56827C53.0437 14.3088 60.9468 21.3944 70.6959 21.3944Z" fill="#46BEB7"/>
<path fill-rule="evenodd" clip-rule="evenodd" d="M70.6957 -9.6498C61.2186 -9.6498 53.6522 -2.77593 53.6522 5.56759C53.6522 13.9111 61.2186 20.785 70.6957 20.785C80.1728 20.785 87.7392 13.9111 87.7392 5.56759C87.7392 -2.77593 80.1728 -9.6498 70.6957 -9.6498ZM52.4348 5.56759C52.4348 -3.56989 60.6747 -10.8672 70.6957 -10.8672C80.7167 -10.8672 88.9566 -3.56989 88.9566 5.56759C88.9566 14.7051 80.7167 22.0024 70.6957 22.0024C60.6747 22.0024 52.4348 14.7051 52.4348 5.56759Z" fill="white"/>
</g>
<path d="M106.627 0.156275H113.479C113.479 0.138883 113.479 9.3041 113.479 9.3041L113.966 9.0954L114.453 8.8867C116.001 8.33018 117.583 8.03453 119.201 8.03453C120.818 8.03453 122.418 8.31279 123.966 8.8867C125.462 9.44322 126.818 10.278 128.018 11.3911C129.201 12.4693 130.122 13.7389 130.783 15.1998C131.462 16.6606 131.792 18.2432 131.792 19.9128C131.792 21.5824 131.462 23.2171 130.801 24.6432C130.14 26.0693 129.218 27.3563 128.001 28.4693C126.783 29.5824 125.427 30.4171 123.949 30.9737C122.453 31.565 120.853 31.8606 119.183 31.8606C117.514 31.8606 114.922 31.3389 112.975 30.2954C111.027 29.2693 109.479 27.8432 108.331 26.0345C107.183 24.2606 106.609 22.2606 106.592 20.0519V0.156275H106.627ZM115.201 23.8954C116.331 25.0084 117.67 25.565 119.218 25.565C120.766 25.565 122.122 25.0084 123.253 23.8954C124.401 22.7824 124.975 21.4432 124.975 19.8954C124.975 18.3476 124.714 17.9476 124.175 17.1128C123.653 16.2606 122.94 15.5824 122.053 15.0606C121.183 14.5563 120.227 14.2954 119.218 14.2954C118.209 14.2954 117.288 14.5563 116.401 15.0606C115.514 15.565 114.801 16.2432 114.279 17.1128C113.757 17.9476 113.479 18.8867 113.479 19.8954C113.479 21.4432 114.053 22.7824 115.201 23.8954Z" fill="#014E8B"/>
<mask id="mask3_1001_11492" style="mask-type:luminance" maskUnits="userSpaceOnUse" x="106" y="0" width="26" height="32">
<path d="M106.627 0.156275H113.479C113.479 0.138883 113.479 9.3041 113.479 9.3041L113.966 9.0954L114.453 8.8867C116.001 8.33018 117.583 8.03453 119.201 8.03453C120.818 8.03453 122.418 8.31279 123.966 8.8867C125.462 9.44322 126.818 10.278 128.018 11.3911C129.201 12.4693 130.122 13.7389 130.783 15.1998C131.462 16.6606 131.792 18.2432 131.792 19.9128C131.792 21.5824 131.462 23.2171 130.801 24.6432C130.14 26.0693 129.218 27.3563 128.001 28.4693C126.783 29.5824 125.427 30.4171 123.949 30.9737C122.453 31.565 120.853 31.8606 119.183 31.8606C117.514 31.8606 114.922 31.3389 112.975 30.2954C111.027 29.2693 109.479 27.8432 108.331 26.0345C107.183 24.2606 106.609 22.2606 106.592 20.0519V0.156275H106.627ZM115.201 23.8954C116.331 25.0084 117.67 25.565 119.218 25.565C120.766 25.565 122.122 25.0084 123.253 23.8954C124.401 22.7824 124.975 21.4432 124.975 19.8954C124.975 18.3476 124.714 17.9476 124.175 17.1128C123.653 16.2606 122.94 15.5824 122.053 15.0606C121.183 14.5563 120.227 14.2954 119.218 14.2954C118.209 14.2954 117.288 14.5563 116.401 15.0606C115.514 15.565 114.801 16.2432 114.279 17.1128C113.757 17.9476 113.479 18.8867 113.479 19.8954C113.479 21.4432 114.053 22.7824 115.201 23.8954Z" fill="white"/>
</mask>
<g mask="url(#mask3_1001_11492)">
<path d="M112.435 48.1756C122.184 48.1756 130.087 41.09 130.087 32.3495C130.087 23.609 122.184 16.5234 112.435 16.5234C102.686 16.5234 94.7827 23.609 94.7827 32.3495C94.7827 41.09 102.686 48.1756 112.435 48.1756Z" fill="#46BEB7"/>
<path fill-rule="evenodd" clip-rule="evenodd" d="M112.435 17.1315C102.958 17.1315 95.3915 24.0053 95.3915 32.3488C95.3915 40.6924 102.958 47.5662 112.435 47.5662C121.912 47.5662 129.478 40.6924 129.478 32.3488C129.478 24.0053 121.912 17.1315 112.435 17.1315ZM94.1741 32.3488C94.1741 23.2114 102.414 15.9141 112.435 15.9141C122.456 15.9141 130.696 23.2114 130.696 32.3488C130.696 41.4863 122.456 48.7836 112.435 48.7836C102.414 48.7836 94.1741 41.4863 94.1741 32.3488Z" fill="white"/>
</g>
<path d="M142.382 25.4933H142.765C144.504 25.4411 145.391 24.2063 145.391 21.8237V8.86719H152.261V21.8237C152.261 28.1194 149.095 31.4585 142.765 31.8063H142.382C136.052 31.4585 132.887 28.1368 132.887 21.8237V8.86719H139.756V21.8237C139.756 24.2237 140.626 25.4411 142.382 25.4933Z" fill="#014E8B"/>
<mask id="mask4_1001_11492" style="mask-type:luminance" maskUnits="userSpaceOnUse" x="132" y="8" width="21" height="24">
<path d="M142.382 25.4933H142.765C144.504 25.4411 145.391 24.2063 145.391 21.8237V8.86719H152.261V21.8237C152.261 28.1194 149.095 31.4585 142.765 31.8063H142.382C136.052 31.4585 132.887 28.1368 132.887 21.8237V8.86719H139.756V21.8237C139.756 24.2237 140.626 25.4411 142.382 25.4933Z" fill="white"/>
</mask>
<g mask="url(#mask4_1001_11492)">
<path fill-rule="evenodd" clip-rule="evenodd" d="M150.244 -16.5079C159.966 -17.3253 168.418 -10.9079 169.149 -2.19489C169.879 6.51815 162.592 14.2399 152.87 15.0399C143.149 15.8399 134.696 9.43989 133.966 0.726845C133.236 -7.9862 140.523 -15.7079 150.244 -16.5079Z" fill="#46BEB7"/>
<path fill-rule="evenodd" clip-rule="evenodd" d="M168.541 -2.14497C167.844 -10.4638 159.744 -16.6968 150.295 -15.9023L150.294 -15.9022C140.843 -15.1246 133.875 -7.64227 134.572 0.675072C135.269 8.99296 143.369 15.21 152.82 14.4323C162.27 13.6547 169.239 6.17238 168.541 -2.14497ZM150.193 -17.1155C160.187 -17.9555 168.991 -11.3538 169.754 -2.24667C170.518 6.86208 162.913 14.8232 152.92 15.6456C142.927 16.4679 134.122 9.88497 133.359 0.776772C132.595 -8.33179 140.2 -16.2928 150.193 -17.1155Z" fill="white"/>
</g>
<path d="M160.453 8.88672V31.165H153.6V8.90412H160.453V8.88672Z" fill="#014E8B"/>
<mask id="mask5_1001_11492" style="mask-type:luminance" maskUnits="userSpaceOnUse" x="153" y="8" width="8" height="24">
<path d="M160.453 8.88672V31.165H153.601V8.90412H160.453V8.88672Z" fill="white"/>
</mask>
<g mask="url(#mask5_1001_11492)">
<path fill-rule="evenodd" clip-rule="evenodd" d="M149.322 -16.1564C159.044 -16.9738 167.496 -10.5564 168.227 -1.84333C168.957 6.86971 161.67 14.5914 151.948 15.3914C142.227 16.2088 133.775 9.79145 133.044 1.07841C132.314 -7.63464 139.601 -15.3564 149.322 -16.1564Z" fill="#46BEB7"/>
<path fill-rule="evenodd" clip-rule="evenodd" d="M167.62 -1.7934C166.922 -10.1122 158.822 -16.3452 149.373 -15.5508L149.372 -15.5507C139.922 -14.773 132.953 -7.29071 133.65 1.02663C134.348 9.34544 142.448 15.5784 151.897 14.784L151.898 14.7839C161.348 14.0062 168.317 6.52394 167.62 -1.7934ZM149.271 -16.7639C159.266 -17.604 168.069 -11.0022 168.833 -1.8951C169.596 7.21331 161.992 15.1742 151.999 15.9971C142.005 16.8374 133.201 10.2356 132.437 1.12833C131.674 -7.98023 139.278 -15.9413 149.271 -16.7639Z" fill="white"/>
</g>
<path d="M161.548 0.277351H168.401C168.401 0.25996 168.401 31.0774 168.401 31.0774L161.548 31.1643V0.277351Z" fill="#014E8B"/>
<mask id="mask6_1001_11492" style="mask-type:luminance" maskUnits="userSpaceOnUse" x="161" y="0" width="8" height="32">
<path d="M161.548 0.277351H168.4C168.4 0.25996 168.4 31.0774 168.4 31.0774L161.548 31.1643V0.277351Z" fill="white"/>
</mask>
<g mask="url(#mask6_1001_11492)">
<path fill-rule="evenodd" clip-rule="evenodd" d="M149.322 -16.1564C159.044 -16.9738 167.496 -10.5564 168.226 -1.84333C168.957 6.86971 161.67 14.5914 151.948 15.3914C142.226 16.2088 133.774 9.79145 133.044 1.07841C132.313 -7.63464 139.6 -15.3564 149.322 -16.1564Z" fill="#46BEB7"/>
<path fill-rule="evenodd" clip-rule="evenodd" d="M167.619 -1.7934C166.922 -10.1122 158.822 -16.3452 149.373 -15.5508L149.372 -15.5507C139.922 -14.773 132.953 -7.29071 133.65 1.02663C134.347 9.34544 142.448 15.5784 151.897 14.784L151.898 14.7839C161.348 14.0062 168.317 6.52394 167.619 -1.7934ZM149.271 -16.7639C159.265 -17.604 168.069 -11.0022 168.833 -1.8951C169.596 7.21331 161.992 15.1742 151.999 15.9971C142.004 16.8374 133.2 10.2356 132.437 1.12833C131.673 -7.98023 139.278 -15.9413 149.271 -16.7639Z" fill="white"/>
</g>
<path d="M194.661 20.0515C194.661 22.2602 194.07 24.2428 192.922 26.0341C191.774 27.8428 190.227 29.2689 188.279 30.295C186.331 31.3385 184.261 31.8602 182.07 31.8602C179.879 31.8602 178.801 31.5646 177.305 30.9733C175.809 30.4167 174.47 29.582 173.253 28.4689C172.053 27.3559 171.114 26.0689 170.453 24.6428C169.792 23.2167 169.461 21.6341 169.461 19.9124C169.461 18.1907 169.792 16.6602 170.47 15.1994C171.131 13.7559 172.053 12.4863 173.235 11.3907C174.435 10.295 175.792 9.46022 177.288 8.8863C178.835 8.32978 180.418 8.03414 182.053 8.03414C183.688 8.03414 185.253 8.31239 186.801 8.8863L187.288 9.095L187.774 9.3037V0.121094H194.627V20.0341L194.661 20.0515ZM187.809 19.895C187.809 18.8863 187.548 17.9472 187.009 17.1124C186.488 16.2602 185.774 15.582 184.888 15.0602C184.018 14.5559 183.079 14.295 182.07 14.295C181.061 14.295 180.122 14.5559 179.235 15.0602C178.348 15.5646 177.635 16.2428 177.114 17.1124C176.592 17.9472 176.314 18.8863 176.314 19.895C176.314 21.4428 176.888 22.782 178.035 23.895C179.166 25.0081 180.505 25.5646 182.07 25.5646C183.635 25.5646 184.957 25.0081 186.088 23.895C187.235 22.782 187.809 21.4428 187.809 19.895Z" fill="#014E8B"/>
<mask id="mask7_1001_11492" style="mask-type:luminance" maskUnits="userSpaceOnUse" x="169" y="0" width="26" height="32">
<path d="M194.661 20.0554C194.661 22.2641 194.07 24.2467 192.922 26.038C191.774 27.8467 190.226 29.2728 188.279 30.2989C186.331 31.3424 184.261 31.8641 182.07 31.8641C179.879 31.8641 178.8 31.5685 177.305 30.9772C175.809 30.4206 174.47 29.5859 173.252 28.4728C172.052 27.3598 171.113 26.0728 170.452 24.6467C169.792 23.2207 169.461 21.638 169.461 19.9163C169.461 18.1946 169.792 16.6641 170.47 15.2033C171.131 13.7598 172.052 12.4902 173.235 11.3946C174.435 10.2989 175.792 9.46412 177.287 8.89021C178.835 8.33369 180.418 8.03804 182.052 8.03804C183.687 8.03804 185.252 8.3163 186.8 8.89021L187.287 9.09891L187.774 9.30761V0.125H194.626V20.038L194.661 20.0554ZM187.809 19.8989C187.809 18.8902 187.548 17.9511 187.009 17.1163C186.487 16.2641 185.774 15.5859 184.887 15.0641C184.018 14.5598 183.079 14.2989 182.07 14.2989C181.061 14.2989 180.122 14.5598 179.235 15.0641C178.348 15.5685 177.635 16.2467 177.113 17.1163C176.592 17.9511 176.313 18.8902 176.313 19.8989C176.313 21.4467 176.887 22.7859 178.035 23.8989C179.166 25.012 180.505 25.5685 182.07 25.5685C183.635 25.5685 184.957 25.012 186.087 23.8989C187.235 22.7859 187.809 21.4467 187.809 19.8989Z" fill="white"/>
</mask>
<g mask="url(#mask7_1001_11492)">
<path d="M193.653 34.2615C203.402 34.2615 211.306 27.176 211.306 18.4355C211.306 9.69496 203.402 2.60938 193.653 2.60938C183.904 2.60938 176.001 9.69496 176.001 18.4355C176.001 27.176 183.904 34.2615 193.653 34.2615Z" fill="#FE8E16"/>
<path fill-rule="evenodd" clip-rule="evenodd" d="M193.653 3.21739C184.176 3.21739 176.609 10.0913 176.609 18.4348C176.609 26.7783 184.176 33.6522 193.653 33.6522C203.13 33.6522 210.696 26.7783 210.696 18.4348C210.696 10.0913 203.13 3.21739 193.653 3.21739ZM175.392 18.4348C175.392 9.29729 183.632 2 193.653 2C203.674 2 211.914 9.29729 211.914 18.4348C211.914 27.5723 203.674 34.8696 193.653 34.8696C183.632 34.8696 175.392 27.5723 175.392 18.4348Z" fill="white"/>
</g>
<path d="M56.2094 31.236C56.2616 31.2012 56.3137 31.1665 56.3659 31.1317C56.4181 31.0969 56.4876 31.0795 56.5398 31.0447C56.592 31.0273 56.6615 30.9926 56.7137 30.9578C56.7485 30.9578 56.7485 30.9404 56.7659 30.9056C56.7659 30.8708 56.8181 30.836 56.8529 30.836V30.2447C56.7833 30.3491 56.6268 30.2447 56.6963 30.1578C56.8007 29.9665 56.8529 29.7578 56.8529 29.5317C56.8529 29.4447 56.8529 29.3578 56.8529 29.2534V29.1143C56.8529 29.1143 56.8181 29.0795 56.8181 29.0447C56.8181 28.7839 56.7485 28.5578 56.6442 28.3317C56.6268 28.2795 56.6442 28.2273 56.6789 28.21C56.7137 28.1926 56.7833 28.21 56.8007 28.2447C56.8007 28.2447 56.8007 28.2621 56.8007 28.2795C56.8007 28.2795 56.8007 28.2795 56.8007 28.2621C56.8007 28.2621 56.8007 28.2621 56.8181 28.2621V27.81C56.7311 28.0013 56.592 28.1404 56.3833 28.2273C56.3311 28.2447 56.2789 28.21 56.2616 28.1578C56.2616 28.1056 56.2789 28.0534 56.3311 28.036C56.7311 27.8795 56.7485 27.3752 56.7833 27.0099C56.7833 26.9752 56.7833 26.9578 56.8181 26.9404V25.6882C56.8181 25.6882 56.8007 25.6882 56.7833 25.6882C56.7311 25.6882 56.6789 25.6534 56.6963 25.6013C56.6963 25.6013 56.6963 25.6012 56.6963 25.5839C56.6963 25.5665 56.6789 25.5491 56.6616 25.5317C56.6442 25.4795 56.6268 25.4273 56.6268 25.3752C56.6268 25.2882 56.6268 25.2013 56.6268 25.1143C56.6442 24.9926 56.7311 24.9056 56.8355 24.8534V22.0882C56.8007 22.1578 56.7485 22.2099 56.6963 22.2795C56.6268 22.3665 56.4876 22.2447 56.5572 22.1404C56.7311 21.9317 56.7833 21.7056 56.7485 21.4447C56.7137 21.1839 56.6268 20.9404 56.6268 20.6795C56.6268 20.5578 56.8181 20.5578 56.8181 20.6795C56.8181 20.7491 56.8181 20.8186 56.8355 20.8882V19.7926C56.6616 19.9665 56.4702 20.123 56.2789 20.2795C56.1224 20.4012 55.8789 20.2969 55.792 20.1404C55.6876 19.9491 55.7746 19.7404 55.9137 19.6186C55.9659 19.5665 56.0181 19.5317 56.0703 19.4795C56.0703 19.4795 56.0876 19.4795 56.0876 19.4621C56.0876 19.4621 56.0876 19.4621 56.105 19.4621C56.1398 19.4447 56.1572 19.4099 56.192 19.3926C56.2963 19.3056 56.4007 19.2013 56.4876 19.0969C56.592 18.9752 56.6442 18.923 56.7137 18.7839C56.7137 18.7665 56.7311 18.7317 56.7485 18.7143L56.7659 18.6447C56.7659 18.61 56.7833 18.5752 56.8007 18.5404C56.8007 18.5404 56.8007 18.5404 56.8007 18.523C56.8007 18.4882 56.8007 18.436 56.8007 18.4013C56.8007 18.4013 56.8007 18.4013 56.8007 18.3839C56.8007 18.3317 56.7833 18.2795 56.7659 18.21C56.7659 18.1752 56.7485 18.1404 56.7311 18.1056C56.7311 18.1056 56.7311 18.0708 56.7137 18.0534L56.6789 17.9839C56.6789 17.9491 56.6442 17.9317 56.6442 17.8969C56.6094 17.8273 56.5746 17.7578 56.5398 17.6882L56.505 17.636C56.505 17.6186 56.4702 17.6012 56.4529 17.5839C56.4355 17.5665 56.4181 17.5491 56.4007 17.5143L56.3659 17.4795C56.3485 17.4795 56.3311 17.4621 56.3137 17.4447C56.1224 17.3926 56.0181 17.1665 56.0703 16.9752C56.1224 16.7839 56.3311 16.6447 56.505 16.6969C56.6442 16.7317 56.7485 16.8186 56.8529 16.923V16.3491C56.8529 16.3143 56.8355 16.2621 56.8181 16.2273C56.7659 16.123 56.6789 16.0534 56.6094 15.9491C56.592 15.9143 56.5746 15.9491 56.5572 15.9143C56.5398 15.9665 56.5572 15.8795 56.4876 15.9143C56.4355 15.9317 56.3833 15.9143 56.3659 15.8795C56.3485 15.8447 56.3659 15.7752 56.4007 15.7578L56.5224 15.7926C56.5224 15.7752 56.5224 15.7578 56.5398 15.7404C56.5572 15.6882 56.5746 15.6186 56.5746 15.5665C56.5746 15.4273 56.5224 15.3056 56.4876 15.1665C56.4876 15.1143 56.3833 15.0273 56.4181 15.0099C56.4181 14.9752 56.4181 14.9578 56.4181 14.923C56.4181 14.836 56.4181 14.7317 56.4181 14.6447C56.4355 14.5926 56.4529 14.5404 56.4703 14.5056C56.5224 14.4186 56.592 14.3491 56.6616 14.2795C56.7137 14.2621 56.7485 14.2447 56.8007 14.21V12.3317C56.6442 12.2273 56.5398 12.036 56.5398 11.8273C56.5398 11.5143 56.4876 11.2186 56.4703 10.9056C56.4355 10.5578 56.4529 10.21 56.5398 9.86212C56.5746 9.68821 56.6963 9.56647 56.8181 9.4969V9.1143C56.6963 9.27082 56.5746 9.40995 56.4355 9.54908C56.2789 9.723 56.0355 9.77516 55.8268 9.67081C55.6181 9.56647 55.4963 9.35778 55.4789 9.1143C55.4442 8.45343 55.5137 7.79256 55.5485 7.13169C55.4963 7.13169 55.4442 7.13169 55.392 7.13169C55.305 7.13169 55.2181 7.13169 55.1137 7.0969C54.9398 7.06212 54.7485 7.06212 54.5746 7.06212C54.5572 7.06212 54.5224 7.06213 54.505 7.02734C50.3311 8.36647 47.2007 13.2708 47.2007 19.0447C47.2007 24.8186 49.3398 30.6621 56.0529 31.3926C56.0529 31.3752 56.0702 31.3404 56.0876 31.3404L56.2094 31.236Z" fill="#095179"/>
<path d="M53.2707 14.1736C53.1316 14.2432 52.9751 14.3127 52.8185 14.3649C52.7142 14.4171 52.5924 14.4519 52.4881 14.4866C52.2446 14.5562 52.0533 14.4867 51.8794 14.2953C51.7055 14.104 51.6881 13.8953 51.7577 13.6693C51.9664 13.0258 52.3142 12.504 52.9055 12.1388C53.0794 12.0345 53.2533 11.8953 53.4098 11.7562C53.462 11.704 53.5142 11.6519 53.5664 11.5997C53.5664 11.5997 53.5664 11.5649 53.549 11.5475C53.462 11.5475 53.3751 11.5475 53.2881 11.5823C52.8359 11.6519 52.5229 11.4084 52.5055 10.9562C52.5055 10.7997 52.5055 10.6432 52.5055 10.4866C52.5751 9.791 53.149 9.33882 53.8446 9.30404C53.862 9.30404 53.8794 9.30404 53.8968 9.30404C54.0011 9.28665 54.1055 9.26926 54.2098 9.25187C54.1577 9.14752 54.1229 9.02578 54.0533 8.92143C53.8794 8.67795 53.8968 8.64317 54.1577 8.52143C54.4707 8.36491 54.7838 8.20839 55.0794 8.03448C55.2533 7.94752 55.3055 7.791 55.2359 7.5997C55.1838 7.47796 55.0968 7.42578 55.0098 7.53013C54.7838 7.82578 54.4533 7.87795 54.1055 7.93012C53.862 7.96491 53.6533 8.08665 53.6359 8.39969C53.4272 8.22578 53.3751 7.82578 53.549 7.63448C54.3316 6.71274 55.7403 6.64317 56.5577 7.70404C56.5751 7.72143 56.5751 7.75622 56.5925 7.80839C56.4012 7.91274 56.2272 7.84317 56.0185 7.791C56.0707 7.86056 56.1055 7.93013 56.1577 7.98231C56.6446 8.38231 57.0272 8.85187 57.3055 9.42578C57.4794 9.791 57.4968 10.1388 57.2359 10.504C57.0272 10.7997 57.1142 11.1649 57.1316 11.4953C57.1316 11.5649 57.149 11.6171 57.1664 11.6867C57.3403 12.191 57.3577 12.6953 57.3403 13.2171C57.3403 13.6867 57.3403 14.1562 57.3403 14.6258C57.3403 14.6953 57.3403 14.7823 57.3229 14.8519C57.2185 15.2693 57.149 15.304 56.8011 15.0606C55.9142 14.4693 54.9403 14.6258 54.2098 15.1301C54.0011 15.2693 53.7925 15.4258 53.6011 15.5649C53.5316 15.6171 53.462 15.6519 53.3925 15.704C53.4098 15.7214 53.4272 15.7562 53.462 15.7736C53.5316 15.7388 53.6011 15.7214 53.6707 15.6867C54.4359 15.3214 55.2359 15.1997 56.0707 15.4432C56.5403 15.5823 56.9229 15.878 57.1838 16.2953C57.4794 16.7475 57.3229 17.3214 56.8707 17.6519C56.5577 17.878 56.2272 17.9823 55.8272 17.9475C55.2707 17.9127 54.7316 17.9127 54.1751 17.9475C53.8446 17.9475 53.5142 18.0519 53.1838 18.0519C52.0881 18.104 51.2185 16.9214 51.8446 15.8432C52.1577 15.2866 52.5577 14.7823 53.0794 14.3997C53.149 14.3475 53.2011 14.278 53.2533 14.2258C53.2533 14.2084 53.2185 14.191 53.2185 14.1736H53.2707ZM55.0794 8.991C55.0794 9.04317 55.1142 9.09534 55.1142 9.14752C55.1142 9.28665 55.1664 9.42578 55.149 9.54752C55.0794 9.93013 54.7142 10.191 54.2968 10.2258C54.0185 10.2432 53.7577 10.2606 53.4794 10.2606C53.4098 10.2606 53.3577 10.2606 53.2533 10.2779C53.5838 10.8866 54.1229 10.678 54.6098 10.6953C54.4533 11.0258 54.3838 11.3388 54.5403 11.6867C54.5751 11.6345 54.6098 11.6171 54.6098 11.5823C54.6968 11.1997 54.9403 10.9214 55.1838 10.6258C55.4098 10.3475 55.5316 10.0345 55.4968 9.68665C55.462 9.391 55.3229 9.14752 55.062 8.95621L55.0794 8.991ZM53.1142 13.2867C53.2011 13.2345 53.2707 13.1997 53.3229 13.1649C53.8098 12.8693 54.3142 12.6953 54.8707 12.991C55.1142 13.1127 55.3229 13.304 55.549 13.4606C55.6185 13.5127 55.6881 13.5301 55.7751 13.5475C55.7751 13.4606 55.8272 13.3562 55.7924 13.2867C55.7403 13.1475 55.6359 13.0084 55.549 12.8866C55.3751 12.6432 55.4098 12.3649 55.6185 12.1736C55.6533 12.1388 55.6881 12.104 55.7403 12.0345C55.6707 12.0345 55.6185 12.0345 55.6011 12.0345C55.3925 12.1562 55.2011 12.278 54.9925 12.3997C54.9229 12.4345 54.8359 12.4866 54.7664 12.4866C54.6272 12.4866 54.4707 12.4519 54.3316 12.4345C53.8098 12.3649 53.3229 12.6432 53.1142 13.1127C53.1142 13.1475 53.1142 13.1997 53.1142 13.2693V13.2867Z" fill="#E86031"/>
<path d="M55.0274 20.5199C55.2883 20.9895 55.6709 21.2504 56.1057 21.4765C56.3665 21.6156 56.6274 21.7547 56.8361 21.946C57.4448 22.4852 57.6361 23.1982 57.5144 23.9808C57.4796 24.2417 57.3752 24.5026 57.2361 24.7286C57.0622 25.0417 56.7318 25.0765 56.4709 24.8504C56.297 24.6939 56.1405 24.5026 55.9839 24.346C55.8274 24.1895 55.6535 24.033 55.4796 23.8765C55.2709 23.7199 55.0274 23.633 54.7491 23.6504C54.3144 23.6852 54.0187 23.4939 53.81 23.146C53.6187 22.7982 53.4274 22.4504 53.2535 22.0852C52.7318 21.0591 51.8622 20.5547 50.7318 20.3808C49.7057 20.2243 48.697 20.3634 47.6883 20.5199C47.41 20.5721 47.1318 20.5721 46.8709 20.5721C46.6796 20.5721 46.5405 20.4156 46.4709 20.2243C46.3144 19.8069 46.2622 19.3895 46.3665 18.9547C46.4709 18.4852 46.7492 18.2939 47.2187 18.4156C47.7057 18.5373 48.1231 18.4504 48.5231 18.1547C48.6448 18.0504 48.8013 17.9808 48.9578 17.9113C49.01 17.8765 49.097 17.9113 49.1665 17.9113C49.1665 17.9634 49.1492 18.033 49.1318 18.0852C49.0796 18.2417 49.01 18.3982 48.9578 18.5547C48.9405 18.6417 48.9057 18.7634 49.0448 18.7982C49.1665 18.833 49.2709 18.7982 49.3405 18.6765C49.4448 18.4852 49.5492 18.2765 49.6535 18.0852C49.7926 17.8069 50.0361 17.5982 50.3144 17.4417C50.5578 17.3026 50.8361 17.3199 51.0796 17.4417C51.3405 17.5634 51.6013 17.7026 51.8448 17.8765C52.1405 18.0678 52.4187 18.2939 52.7144 18.5199C52.8709 18.6417 53.0274 18.6939 53.2361 18.6939C53.9318 18.6939 54.6448 18.6939 55.3405 18.7286C55.9665 18.7634 56.5405 18.9895 57.0448 19.3547C57.3057 19.546 57.5318 19.7895 57.5318 20.1547C57.5318 20.6417 57.097 20.9547 56.6274 20.8156C56.1926 20.6765 55.7752 20.5199 55.3057 20.5547C55.2361 20.5547 55.1839 20.5547 55.0622 20.5547L55.0274 20.5199Z" fill="#E86031"/>
<path d="M54.5406 25.5119C54.245 25.5467 53.9841 25.5815 53.7058 25.6163C52.6798 25.738 51.8798 25.1815 51.6711 24.1902C51.6015 23.8772 51.5841 23.5641 51.5319 23.2337C51.5319 23.1467 51.5145 23.0772 51.445 22.9902C51.3754 23.0946 51.3059 23.1989 51.2189 23.2859C51.0624 23.4598 50.9232 23.6337 50.7493 23.7728C50.4189 24.0337 50.0015 24.0163 49.6885 23.6859C49.4276 23.425 49.2189 23.0945 49.0276 22.7815C48.8711 22.5206 48.7667 22.225 48.645 21.9467C48.6102 21.8772 48.5754 21.8076 48.5232 21.6859C48.4711 21.8076 48.4363 21.8772 48.4015 21.9467C48.2276 22.4163 47.7928 22.7293 47.3754 22.7293C47.0276 22.7293 46.7493 22.5554 46.5754 22.2424C46.4015 21.9293 46.4189 21.5989 46.5754 21.2859C46.6102 21.2337 46.6972 21.1815 46.7667 21.1815C47.3928 21.1815 47.9667 21.0076 48.558 20.8337C49.2711 20.6076 49.9667 20.6598 50.6102 21.0424C50.6624 21.0772 50.6972 21.1119 50.7493 21.1641C50.6276 21.2511 50.4885 21.3032 50.4189 21.3902C50.3319 21.4945 50.2624 21.6163 50.2276 21.738C50.1928 21.8424 50.2798 21.8772 50.3667 21.825C50.4363 21.7902 50.5059 21.738 50.558 21.6859C51.2885 21.1467 51.9667 21.3554 52.4363 22.0685C52.6276 22.3815 52.7667 22.7293 52.9406 23.0424C53.1145 23.3902 53.358 23.6859 53.7058 23.8772C53.8798 23.9641 54.0711 24.0163 54.2624 24.0685C54.6798 24.1554 55.045 24.2772 55.2885 24.6945C55.5667 25.1989 56.0189 25.5119 56.6624 25.4945C56.8015 25.4945 56.8711 25.5467 56.9232 25.6685C57.1667 26.2424 56.9232 27.0424 56.4189 27.425C55.758 27.9293 55.045 27.9641 54.3319 27.5989C53.9493 27.4076 53.6015 27.1815 53.2363 26.9728C53.1667 26.938 53.1145 26.9032 53.0276 26.8511C52.9232 27.2163 53.0624 27.4598 53.358 27.7206C52.9406 27.7554 52.5928 27.7554 52.245 27.6337C51.6363 27.4076 51.3059 26.9554 51.1319 26.3467C51.1145 26.2772 51.045 26.2076 51.0102 26.138C50.958 26.2076 50.8711 26.2772 50.8363 26.3467C50.8015 26.4685 50.7841 26.6076 50.7841 26.7293C50.7841 26.8511 50.7493 26.8859 50.6276 26.9032C49.4972 26.9554 48.4363 26.0685 48.2972 24.9554C48.2972 24.938 48.2972 24.9206 48.2624 24.8685C48.2102 24.938 48.158 24.9902 48.1232 25.0598C47.8624 25.4076 47.6189 25.425 47.3928 25.1119C47.1841 24.8163 47.0102 24.4859 46.8363 24.1554C47.1493 24.3641 47.4798 24.4858 47.845 24.538C47.9667 24.538 48.0885 24.538 48.1928 24.538C48.4885 24.5032 48.7667 24.5032 49.0624 24.625C49.1319 24.6598 49.2015 24.6772 49.2885 24.6945C49.2885 24.2598 49.0798 24.0337 48.5928 23.9815C48.3319 23.9467 48.0711 23.9815 47.8276 23.9293C47.6015 23.8945 47.3754 23.7728 47.1667 23.6859C47.1145 23.6685 47.0624 23.5989 47.0276 23.5467C46.9754 23.4424 46.958 23.3206 46.9406 23.2163C47.0276 23.2163 47.1319 23.1641 47.2189 23.1815C47.6363 23.2337 48.0537 23.2511 48.4537 23.338C49.1493 23.4946 49.5841 24.0685 49.6015 24.7815C49.6015 24.9902 49.7059 25.1989 49.7754 25.4076C49.7754 25.4598 49.8624 25.4946 49.9319 25.5119C49.9667 25.5119 50.0189 25.4424 50.0363 25.3902C50.0711 25.2859 50.0885 25.1641 50.1232 25.0424C50.1928 24.6945 50.4711 24.4685 50.8537 24.4685C51.1319 24.4685 51.4624 24.7293 51.5145 25.025C51.5841 25.4424 51.7232 25.8076 52.1059 26.0163C52.3145 26.1206 52.558 26.2076 52.8015 26.225C53.3232 26.225 53.8276 26.3293 54.2798 26.6076C54.558 26.7815 54.9058 26.7641 55.2711 26.6772C55.0972 26.5902 54.9754 26.5206 54.8537 26.4511C54.4015 26.225 54.3319 26.0511 54.5232 25.5815C54.5232 25.5815 54.5232 25.5467 54.5232 25.4945L54.5406 25.5119Z" fill="#E86031"/>
<path d="M50.9055 15.2694C50.9403 15.565 51.0273 15.8433 51.2708 16.0346C51.4273 16.1563 51.4968 16.2607 51.3925 16.452C51.3403 16.5563 51.3229 16.6955 51.3055 16.8172C51.2881 16.9215 51.236 16.9389 51.1316 16.9041C50.6273 16.6955 50.1229 16.8172 49.636 16.9911C49.0795 17.1824 48.5229 17.4259 48.0186 17.7389C47.6708 17.965 47.3403 17.9128 47.0447 17.6868C46.8186 17.5128 46.6795 17.0259 46.7664 16.7302C46.8186 16.5911 46.8881 16.452 46.9577 16.3128C46.9751 16.3128 46.9925 16.3128 47.0099 16.3302C47.0273 16.5215 47.0447 16.7128 47.0795 16.9041C47.1142 17.0259 47.1664 17.1476 47.236 17.2694C47.2534 17.3041 47.3403 17.3215 47.3925 17.3563C47.4099 17.3041 47.4621 17.252 47.4621 17.1998C47.4795 17.0433 47.4968 16.8868 47.5142 16.7302C47.549 16.4172 47.7055 16.2781 48.0186 16.2259C48.5229 16.1389 48.9925 16.3128 49.4621 16.452C49.5316 16.4694 49.6012 16.4694 49.7229 16.5042C49.3403 16.0346 48.9055 15.7911 48.3664 15.7041C48.1229 15.6694 47.8795 15.652 47.636 15.6172C47.5142 15.6172 47.4795 15.5476 47.4621 15.4259C47.4273 14.8694 47.6186 14.365 47.8968 13.8955C48.0708 13.6172 48.436 13.565 48.6795 13.7911C48.8708 13.965 49.0273 14.1563 49.2186 14.3128C49.4621 14.5041 49.7403 14.6607 50.0186 14.8346C50.0708 14.8694 50.1403 14.8694 50.1925 14.8694C50.1925 14.8694 50.1925 14.8346 50.2099 14.8172C50.1751 14.765 50.1229 14.7128 50.0881 14.6607C49.8795 14.2781 49.6186 13.8954 49.4621 13.4954C49.3055 13.1302 49.4273 12.765 49.7055 12.452C49.9838 12.1215 50.3316 11.9302 50.7664 11.8781C51.0968 11.8259 51.3229 11.652 51.4273 11.3563C51.4447 11.3041 51.4273 11.2346 51.4273 11.1824C51.3751 11.1824 51.2881 11.1824 51.2534 11.2172C51.0447 11.4085 50.8012 11.4607 50.5229 11.4259C50.2273 11.3911 50.0881 11.2346 50.2099 10.9563C50.3142 10.7128 50.4708 10.5041 50.6099 10.2781C50.6795 10.1737 50.7664 10.0694 50.8708 9.91284C50.4534 9.91284 50.2273 10.1215 50.0186 10.3824C50.0708 9.98241 50.3142 9.77372 50.6621 9.63459C50.8881 9.54763 51.1316 9.44328 51.3229 9.28676C51.4968 9.14763 51.6534 8.95632 51.7577 8.74762C52.0708 8.13893 52.5925 7.84327 53.2186 7.61719C53.2186 7.68675 53.2012 7.72153 53.1838 7.75632C53.0621 8.05197 53.1142 8.31284 53.2881 8.57371C53.4099 8.74762 53.3925 8.79979 53.2012 8.88675C52.4534 9.19979 52.0881 9.80849 52.0012 10.5737C51.949 11.0085 51.9664 11.4607 51.949 11.9128C51.949 11.9824 51.9142 12.0868 51.8794 12.1389C51.1838 12.8868 51.0621 13.7563 51.3577 14.6955C51.4273 14.9041 51.4968 15.1128 51.549 15.3389C51.5664 15.4085 51.549 15.4954 51.5316 15.5824C51.4621 15.5476 51.3751 15.5302 51.3055 15.4954C51.2012 15.4259 51.1142 15.3389 51.0099 15.252C50.9925 15.252 50.9577 15.2868 50.9403 15.2868L50.9055 15.2694Z" fill="#E86031"/>
<path d="M47.0623 25.668C47.6188 26.0332 48.1579 26.4158 48.7144 26.7462C49.3579 27.1288 50.0362 27.4593 50.8362 27.3897C51.0275 27.3723 51.1666 27.4767 51.3057 27.6158C51.4623 27.7897 51.6014 27.9636 51.7927 28.1028C52.1579 28.381 52.5579 28.4332 52.9753 28.2419C53.3927 28.0506 53.7579 28.0506 54.1927 28.1897C55.0101 28.468 55.8101 28.3115 56.5579 27.9462C56.7492 27.8419 56.9231 27.7201 57.1144 27.6158C57.1492 27.8593 56.8883 28.2767 56.6275 28.3636C56.1927 28.5028 55.7405 28.6245 55.3057 28.781C55.1492 28.8332 54.9753 28.9028 54.8362 28.9897C54.3492 29.268 53.8449 29.4767 53.2883 29.5288C52.5579 29.5984 51.9318 29.3028 51.5318 28.7288C51.0101 27.9984 50.297 27.6854 49.4449 27.581C49.1144 27.5462 48.8014 27.5115 48.5927 27.1984C48.5579 27.1462 48.4362 27.1288 48.3492 27.0941C47.5666 26.9201 47.097 26.3984 47.0796 25.668H47.0623Z" fill="#E86031"/>
<path d="M53.271 30.5743C53.7406 30.6961 54.2276 30.8178 54.7145 30.9395C55.2884 31.0787 55.8797 31.0961 56.4537 30.9395C56.7319 30.8526 56.958 30.6787 57.1145 30.3656C56.8884 30.4352 56.7145 30.5048 56.5406 30.5221C56.1754 30.5569 55.7928 30.6091 55.4102 30.5917C55.0102 30.5569 54.7667 30.2613 54.7841 29.9134C54.7841 29.6352 54.958 29.4265 55.2363 29.3569C55.3754 29.3221 55.5319 29.3048 55.671 29.2874C56.158 29.2178 56.6276 29.0613 57.045 28.8004C57.0971 28.7656 57.1667 28.783 57.2189 28.7656C57.2189 28.8352 57.2363 28.9048 57.2189 28.9569C57.2015 29.0265 57.1493 29.0787 57.0971 29.1308C56.7319 29.4091 56.3493 29.6352 55.8624 29.67C55.7928 29.67 55.7406 29.7221 55.671 29.7395C55.7232 29.7917 55.7754 29.8613 55.8276 29.8961C56.1406 30.0178 56.471 30.0178 56.8015 29.983C56.9754 29.9656 57.1493 29.983 57.2363 30.1569C57.3232 30.3308 57.2884 30.5048 57.1667 30.6439C56.4015 31.4439 55.7232 31.67 54.6971 31.3395C54.1928 31.183 53.7232 30.9221 53.2537 30.7134L53.2884 30.5917L53.271 30.5743Z" fill="#E86031"/>
<path d="M52.9927 30.0698C52.8709 30.0698 52.7492 30.122 52.6449 30.122C51.984 30.1568 51.3927 29.9133 50.8188 29.6524C50.3666 29.4437 49.9492 29.2002 49.6362 28.8002C49.5318 28.6611 49.4275 28.4872 49.3579 28.3307C49.2709 28.1568 49.3231 28.0872 49.5144 28.122C50.1057 28.1915 50.6623 28.3481 51.0796 28.8002C51.2709 29.0089 51.4622 29.235 51.6709 29.4437C52.0362 29.7741 52.4536 29.9828 52.9579 30.0002C52.9579 30.0002 52.9927 30.0002 53.0101 30.0176V30.0524L52.9927 30.0698Z" fill="#E86031"/>
<path d="M49.601 11.1658C49.601 11.3571 49.6358 11.5137 49.6358 11.6876C49.6358 11.7745 49.601 11.8789 49.5489 11.931C49.288 12.2093 49.1141 12.5397 48.9923 12.8876C48.9576 12.9745 48.8706 13.0789 48.7836 13.1137C48.4706 13.2702 48.3315 13.1832 48.3489 12.8354C48.401 12.0876 48.8184 11.5658 49.4619 11.2006C49.4967 11.1832 49.5662 11.1658 49.6184 11.1484L49.601 11.1658Z" fill="#E86031"/>
<path d="M53.0615 14.1385C52.9224 14.208 52.7658 14.2776 52.6093 14.3298C52.505 14.3819 52.3832 14.4167 52.2789 14.4515C52.0354 14.5211 51.8441 14.4515 51.6702 14.2602C51.4963 14.0689 51.4789 13.8602 51.5484 13.6341C51.7571 12.9906 52.105 12.4689 52.6963 12.1037C52.8702 11.9993 53.0441 11.8602 53.2006 11.7211C53.2528 11.6689 53.305 11.6167 53.3571 11.5645C53.3571 11.5645 53.3571 11.5298 53.3397 11.5124C53.2528 11.5124 53.1658 11.5124 53.0789 11.5472C52.6267 11.6167 52.3137 11.3732 52.2963 10.9211C52.2963 10.7645 52.2963 10.608 52.2963 10.4515C52.3658 9.75584 52.9397 9.30367 53.6354 9.26888C53.6528 9.26888 53.6702 9.26888 53.6876 9.26888C53.7919 9.25149 53.8963 9.2341 54.0006 9.21671C53.9484 9.11237 53.9137 8.99062 53.8441 8.88627C53.6702 8.6428 53.6876 8.60802 53.9484 8.48628C54.2615 8.32975 54.5745 8.17323 54.8702 7.99932C55.0441 7.91237 55.0963 7.75584 55.0267 7.56454C54.9745 7.4428 54.8876 7.39062 54.8006 7.49497C54.5745 7.79062 54.2441 7.8428 53.8963 7.89498C53.6528 7.92976 53.4441 8.05149 53.4267 8.36453C53.218 8.19062 53.1658 7.79063 53.3397 7.59932C54.1224 6.67758 55.531 6.60801 56.3484 7.66888C56.3658 7.68627 56.3658 7.72106 56.3832 7.77324C56.1919 7.87758 56.018 7.80801 55.8093 7.75584C55.8615 7.8254 55.8963 7.89498 55.9484 7.94715C56.4354 8.34715 56.818 8.81671 57.0963 9.39063C57.2702 9.75584 57.2876 10.1037 57.0267 10.4689C56.818 10.7645 56.905 11.1298 56.9224 11.4602C56.9224 11.5298 56.9397 11.5819 56.9571 11.6515C57.131 12.1558 57.1484 12.6602 57.131 13.1819C57.131 13.6515 57.131 14.1211 57.131 14.5906C57.131 14.6602 57.1311 14.7472 57.1137 14.8167C57.0093 15.2341 56.9397 15.2689 56.5919 15.0254C55.705 14.4341 54.731 14.5906 54.0006 15.095C53.7919 15.2341 53.5832 15.3906 53.3919 15.5298C53.3224 15.5819 53.2528 15.6167 53.1832 15.6689C53.2006 15.6863 53.218 15.7211 53.2528 15.7385C53.3224 15.7037 53.3919 15.6863 53.4615 15.6515C54.2267 15.2863 55.0267 15.1645 55.8615 15.408C56.3311 15.5471 56.7137 15.8428 56.9745 16.2602C57.2702 16.7124 57.1137 17.2863 56.6615 17.6167C56.3484 17.8428 56.018 17.9471 55.618 17.9124C55.0615 17.8776 54.5224 17.8776 53.9658 17.9124C53.6354 17.9124 53.305 18.0167 52.9745 18.0167C51.8789 18.0689 51.0093 16.8863 51.6354 15.808C51.9484 15.2515 52.3484 14.7471 52.8702 14.3645C52.9397 14.3124 52.9919 14.2428 53.0441 14.1906C53.0441 14.1732 53.0093 14.1558 53.0093 14.1385H53.0615ZM54.8876 8.93846C54.8876 8.99063 54.9224 9.0428 54.9224 9.09497C54.9224 9.2341 54.9745 9.37323 54.9571 9.49497C54.8876 9.87758 54.5223 10.1385 54.105 10.1732C53.8267 10.1906 53.5658 10.208 53.2876 10.208C53.218 10.208 53.1658 10.208 53.0615 10.2254C53.3919 10.8341 53.9311 10.6254 54.418 10.6428C54.2615 10.9732 54.1919 11.2863 54.3484 11.6341C54.3832 11.5819 54.418 11.5645 54.418 11.5298C54.505 11.1471 54.7484 10.8689 54.9919 10.5732C55.218 10.295 55.3397 9.98193 55.305 9.63411C55.2702 9.33846 55.131 9.09498 54.8702 8.90367L54.8876 8.93846ZM52.905 13.2515C52.9919 13.1993 53.0615 13.1645 53.1137 13.1298C53.6006 12.8341 54.105 12.6602 54.6615 12.9558C54.905 13.0776 55.1137 13.2689 55.3397 13.4254C55.4093 13.4776 55.4789 13.495 55.5658 13.5124C55.5658 13.4254 55.618 13.3211 55.5832 13.2515C55.531 13.1124 55.4267 12.9732 55.3397 12.8515C55.1658 12.608 55.2006 12.3298 55.4093 12.1385C55.4441 12.1037 55.4789 12.0689 55.531 11.9993C55.4615 11.9993 55.4093 11.9993 55.3919 11.9993C55.1832 12.1211 54.9919 12.2428 54.7832 12.3645C54.7137 12.3993 54.6267 12.4515 54.5571 12.4515C54.418 12.4515 54.2615 12.4167 54.1224 12.3993C53.6006 12.3298 53.1137 12.608 52.905 13.0776C52.905 13.1124 52.905 13.1645 52.905 13.2341V13.2515Z" fill="url(#paint0_linear_1001_11492)"/>
<path d="M54.8358 20.4848C55.0966 20.9544 55.4792 21.2152 55.914 21.4413C56.1749 21.5804 56.4358 21.7196 56.6445 21.9109C57.2532 22.45 57.4445 23.1631 57.3227 23.9457C57.2879 24.2065 57.1836 24.4674 57.0445 24.6935C56.8705 25.0065 56.5401 25.0413 56.2792 24.8152C56.1053 24.6587 55.9488 24.4674 55.7923 24.3109C55.6358 24.1544 55.4619 23.9978 55.2879 23.8413C55.0792 23.6848 54.8358 23.5978 54.5575 23.6152C54.1227 23.65 53.8271 23.4587 53.6184 23.1109C53.4271 22.7631 53.2358 22.4152 53.0619 22.05C52.5401 21.0239 51.6705 20.5196 50.5401 20.3457C49.514 20.1891 48.5053 20.3283 47.4966 20.4848C47.2184 20.537 46.9401 20.537 46.6792 20.537C46.4879 20.537 46.3488 20.3804 46.2792 20.1891C46.1227 19.7717 46.0705 19.3544 46.1749 18.9196C46.2792 18.45 46.5575 18.2587 47.0271 18.3804C47.514 18.5022 47.9314 18.4152 48.3314 18.1196C48.4532 18.0152 48.6097 17.9457 48.7662 17.8761C48.8184 17.8413 48.9053 17.8761 48.9749 17.8761C48.9749 17.9283 48.9575 17.9978 48.9401 18.05C48.8879 18.2065 48.8184 18.3631 48.7662 18.5196C48.7488 18.6065 48.714 18.7283 48.8532 18.7631C48.9749 18.7978 49.0792 18.7631 49.1488 18.6413C49.2532 18.45 49.3575 18.2413 49.4618 18.05C49.601 17.7717 49.8445 17.5631 50.1227 17.4065C50.3662 17.2674 50.6445 17.2848 50.8879 17.4065C51.1488 17.5283 51.4097 17.6674 51.6532 17.8413C51.9488 18.0326 52.2271 18.2587 52.5227 18.4848C52.6792 18.6065 52.8358 18.6587 53.0445 18.6587C53.7401 18.6587 54.4531 18.6587 55.1488 18.6935C55.7749 18.7283 56.3488 18.9544 56.8532 19.3196C57.114 19.5109 57.3401 19.7544 57.3401 20.1196C57.3401 20.6065 56.9053 20.9196 56.4358 20.7804C56.001 20.6413 55.5836 20.4848 55.114 20.5196C55.0445 20.5196 54.9923 20.5196 54.8705 20.5196L54.8358 20.4848Z" fill="url(#paint1_linear_1001_11492)"/>
<path d="M54.3314 25.4612C54.0358 25.4959 53.7749 25.5307 53.4966 25.5655C52.4705 25.6872 51.6705 25.1307 51.4618 24.1394C51.3923 23.8264 51.3749 23.5133 51.3227 23.1829C51.3227 23.0959 51.3053 23.0264 51.2358 22.9394C51.1662 23.0438 51.0966 23.1481 51.0097 23.2351C50.8531 23.409 50.714 23.5829 50.5401 23.722C50.2097 23.9829 49.7923 23.9655 49.4792 23.6351C49.2184 23.3742 49.0097 23.0438 48.8184 22.7307C48.6618 22.4699 48.5575 22.1742 48.4358 21.8959C48.401 21.8264 48.3662 21.7568 48.314 21.6351C48.2618 21.7568 48.2271 21.8264 48.1923 21.8959C48.0184 22.3655 47.5836 22.6786 47.1662 22.6786C46.8184 22.6786 46.5401 22.5046 46.3662 22.1916C46.1923 21.8785 46.2097 21.5481 46.3662 21.2351C46.401 21.1829 46.4879 21.1307 46.5575 21.1307C47.1836 21.1307 47.7575 20.9568 48.3488 20.7829C49.0618 20.5568 49.7575 20.609 50.401 20.9916C50.4531 21.0264 50.4879 21.0612 50.5401 21.1133C50.4184 21.2003 50.2792 21.2525 50.2097 21.3394C50.1227 21.4438 50.0531 21.5655 50.0184 21.6872C49.9836 21.7916 50.0705 21.8264 50.1575 21.7742C50.2271 21.7394 50.2966 21.6872 50.3488 21.6351C51.0792 21.0959 51.7575 21.3046 52.2271 22.0177C52.4184 22.3307 52.5575 22.6786 52.7314 22.9916C52.9053 23.3394 53.1488 23.6351 53.4966 23.8264C53.6705 23.9133 53.8618 23.9655 54.0531 24.0177C54.4705 24.1046 54.8358 24.2264 55.0792 24.6438C55.3575 25.1481 55.8097 25.4612 56.4531 25.4438C56.5923 25.4438 56.6618 25.4959 56.714 25.6177C56.9575 26.1916 56.714 26.9916 56.2097 27.3742C55.5488 27.8786 54.8358 27.9133 54.1227 27.5481C53.7401 27.3568 53.3923 27.1307 53.0271 26.922C52.9575 26.8872 52.9053 26.8525 52.8184 26.8003C52.714 27.1655 52.8531 27.409 53.1488 27.6698C52.7314 27.7046 52.3836 27.7046 52.0358 27.5829C51.4271 27.3568 51.0966 26.9046 50.9227 26.2959C50.9053 26.2264 50.8358 26.1568 50.801 26.0872C50.7488 26.1568 50.6618 26.2264 50.6271 26.2959C50.5923 26.4177 50.5749 26.5568 50.5749 26.6786C50.5749 26.8003 50.5401 26.8351 50.4184 26.8525C49.2879 26.9046 48.2271 26.0177 48.0879 24.9046C48.0879 24.8872 48.0879 24.8699 48.0531 24.8177C48.001 24.8872 47.9488 24.9394 47.914 25.009C47.6531 25.3568 47.4097 25.3742 47.1836 25.0612C46.9749 24.7655 46.801 24.4351 46.6271 24.1046C46.9401 24.3133 47.2705 24.4351 47.6357 24.4872C47.7575 24.4872 47.8792 24.4872 47.9836 24.4872C48.2792 24.4525 48.5575 24.4525 48.8531 24.5742C48.9227 24.609 48.9923 24.6264 49.0792 24.6438C49.0792 24.209 48.8705 23.9829 48.3836 23.9307C48.1227 23.8959 47.8618 23.9307 47.6184 23.8785C47.3923 23.8438 47.1662 23.722 46.9575 23.6351C46.9053 23.6177 46.8531 23.5481 46.8184 23.4959C46.7662 23.3916 46.7488 23.2699 46.7314 23.1655C46.8184 23.1655 46.9227 23.1133 47.0097 23.1307C47.4271 23.1829 47.8444 23.2003 48.2444 23.2872C48.9401 23.4438 49.3749 24.0177 49.3923 24.7307C49.3923 24.9394 49.4966 25.1481 49.5662 25.3568C49.5662 25.409 49.6531 25.4438 49.7227 25.4612C49.7575 25.4612 49.8097 25.3916 49.8271 25.3394C49.8618 25.2351 49.8792 25.1133 49.914 24.9916C49.9836 24.6438 50.2618 24.4177 50.6444 24.4177C50.9227 24.4177 51.2531 24.6785 51.3053 24.9742C51.3749 25.3916 51.514 25.7568 51.8966 25.9655C52.1053 26.0699 52.3488 26.1568 52.5923 26.1742C53.114 26.1742 53.6184 26.2786 54.0705 26.5568C54.3488 26.7307 54.6966 26.7133 55.0618 26.6264C54.8879 26.5394 54.7662 26.4699 54.6444 26.4003C54.1923 26.1742 54.1227 26.0003 54.314 25.5307C54.314 25.5307 54.314 25.4959 54.314 25.4438L54.3314 25.4612Z" fill="url(#paint2_linear_1001_11492)"/>
<path d="M50.7136 15.2342C50.7484 15.5299 50.8354 15.8081 51.0789 15.9994C51.2354 16.1212 51.3049 16.2255 51.2006 16.4168C51.1484 16.5212 51.131 16.6603 51.1136 16.782C51.0963 16.8864 51.0441 16.9038 50.9397 16.869C50.4354 16.6603 49.931 16.782 49.4441 16.9559C48.8876 17.1473 48.331 17.3907 47.8267 17.7038C47.4789 17.9299 47.1484 17.8777 46.8528 17.6516C46.6267 17.4777 46.4876 16.9907 46.5745 16.6951C46.6267 16.5559 46.6963 16.4168 46.7658 16.2777C46.7832 16.2777 46.8006 16.2777 46.818 16.2951C46.8354 16.4864 46.8528 16.6777 46.8876 16.869C46.9223 16.9907 46.9745 17.1125 47.0441 17.2342C47.0615 17.269 47.1484 17.2864 47.2006 17.3212C47.218 17.269 47.2702 17.2168 47.2702 17.1646C47.2876 17.0081 47.305 16.8516 47.3223 16.6951C47.3571 16.382 47.5136 16.2429 47.8267 16.1907C48.331 16.1038 48.8006 16.2777 49.2702 16.4168C49.3397 16.4342 49.4093 16.4342 49.531 16.469C49.1484 15.9994 48.7136 15.7559 48.1745 15.669C47.931 15.6342 47.6876 15.6168 47.4441 15.582C47.3223 15.582 47.2876 15.5125 47.2702 15.3907C47.2354 14.8342 47.4267 14.3299 47.7049 13.8603C47.8789 13.582 48.2441 13.5299 48.4876 13.7559C48.6789 13.9299 48.8354 14.1212 49.0267 14.2777C49.2702 14.469 49.5484 14.6255 49.8267 14.7994C49.8789 14.8342 49.9484 14.8342 50.0006 14.8342C50.0006 14.8342 50.0006 14.7994 50.018 14.782C49.9832 14.7299 49.931 14.6777 49.8963 14.6255C49.6876 14.2429 49.4267 13.8603 49.2702 13.4603C49.1136 13.0951 49.2354 12.7299 49.5136 12.4168C49.7919 12.0864 50.1397 11.8951 50.5745 11.8429C50.9049 11.7907 51.131 11.6168 51.2354 11.3212C51.2528 11.269 51.2354 11.1994 51.2354 11.1472C51.1832 11.1472 51.0963 11.1473 51.0615 11.182C50.8528 11.3733 50.6093 11.4255 50.331 11.3907C50.0354 11.3559 49.8963 11.1994 50.018 10.9212C50.1223 10.6777 50.2789 10.469 50.418 10.2429C50.4876 10.1386 50.5745 10.0342 50.6789 9.87769C50.2615 9.87769 50.0354 10.0864 49.8267 10.3473C49.8789 9.94725 50.1223 9.73856 50.4702 9.59943C50.6963 9.51247 50.9397 9.40812 51.131 9.2516C51.3049 9.11247 51.4615 8.92116 51.5658 8.71247C51.8789 8.10377 52.4006 7.80812 53.0267 7.58203C53.0267 7.6516 53.0093 7.68639 52.9919 7.72117C52.8702 8.01682 52.9223 8.27768 53.0963 8.53855C53.218 8.71247 53.2006 8.76465 53.0093 8.8516C52.2615 9.16465 51.8963 9.77334 51.8093 10.5386C51.7571 10.9733 51.7745 11.4255 51.7571 11.8777C51.7571 11.9473 51.7223 12.0516 51.6876 12.1038C50.9919 12.8516 50.8702 13.7212 51.1658 14.6603C51.2354 14.869 51.3049 15.0777 51.3571 15.3038C51.3745 15.3733 51.3571 15.4603 51.3397 15.5473C51.2702 15.5125 51.1832 15.4951 51.1136 15.4603C51.0093 15.3907 50.9223 15.3038 50.818 15.2168C50.8006 15.2168 50.7658 15.2516 50.7484 15.2516L50.7136 15.2342Z" fill="url(#paint3_linear_1001_11492)"/>
<path d="M46.8528 25.6172C47.4093 25.9824 47.9484 26.365 48.505 26.6955C49.1484 27.0781 49.8267 27.4085 50.6267 27.3389C50.818 27.3215 50.9571 27.4259 51.0963 27.565C51.2528 27.7389 51.3919 27.9128 51.5832 28.052C51.9484 28.3302 52.3484 28.3824 52.7658 28.1911C53.1832 27.9998 53.5484 27.9998 53.9832 28.1389C54.8006 28.4172 55.6006 28.2607 56.3484 27.8955C56.5397 27.7911 56.7137 27.6694 56.905 27.565C56.9397 27.8085 56.6789 28.2259 56.418 28.3128C55.9832 28.452 55.531 28.5737 55.0963 28.7302C54.9397 28.7824 54.7658 28.852 54.6267 28.9389C54.1397 29.2172 53.6354 29.4259 53.0789 29.4781C52.3484 29.5476 51.7224 29.252 51.3224 28.6781C50.8006 27.9476 50.0876 27.6346 49.2354 27.5302C48.905 27.4954 48.5919 27.4607 48.3832 27.1476C48.3484 27.0954 48.2267 27.0781 48.1397 27.0433C47.3571 26.8694 46.8876 26.3476 46.8702 25.6172H46.8528Z" fill="url(#paint4_linear_1001_11492)"/>
<path d="M53.0618 30.5392C53.5314 30.6609 54.0184 30.7826 54.5053 30.9044C55.0792 31.0435 55.6705 31.0609 56.2444 30.9044C56.5227 30.8174 56.7488 30.6435 56.9053 30.3305C56.6792 30.4 56.5053 30.4696 56.3314 30.487C55.9662 30.5218 55.5836 30.5739 55.201 30.5566C54.801 30.5218 54.5575 30.2261 54.5749 29.8783C54.5749 29.6 54.7488 29.3913 55.027 29.3218C55.1662 29.287 55.3227 29.2696 55.4618 29.2522C55.9488 29.1826 56.4183 29.0261 56.8357 28.7653C56.8879 28.7305 56.9575 28.7479 57.0096 28.7305C57.0096 28.8 57.027 28.8696 57.0096 28.9218C56.9923 28.9913 56.9401 29.0435 56.8879 29.0957C56.5227 29.3739 56.1401 29.6 55.6531 29.6348C55.5836 29.6348 55.5314 29.687 55.4618 29.7044C55.514 29.7566 55.5662 29.8261 55.6183 29.8609C55.9314 29.9826 56.2618 29.9826 56.5923 29.9479C56.7662 29.9305 56.9401 29.9479 57.027 30.1218C57.114 30.2957 57.0792 30.4696 56.9575 30.6087C56.1923 31.4087 55.514 31.6348 54.4879 31.3044C53.9836 31.1479 53.514 30.887 53.0444 30.6783L53.0792 30.5566L53.0618 30.5392Z" fill="url(#paint5_linear_1001_11492)"/>
<path d="M52.7832 30.0346C52.6615 30.0346 52.5397 30.0868 52.4354 30.0868C51.7745 30.1216 51.1832 29.8781 50.6093 29.6173C50.1571 29.4086 49.7397 29.1651 49.4267 28.7651C49.3223 28.626 49.218 28.452 49.1484 28.2955C49.0615 28.1216 49.1136 28.052 49.3049 28.0868C49.8963 28.1564 50.4528 28.3129 50.8702 28.7651C51.0615 28.9738 51.2528 29.1999 51.4615 29.4086C51.8267 29.739 52.2441 29.9477 52.7484 29.9651C52.7484 29.9651 52.7832 29.9651 52.8006 29.9825V30.0173L52.7832 30.0346Z" fill="url(#paint6_linear_1001_11492)"/>
<path d="M49.3918 11.1307C49.3918 11.322 49.4266 11.4785 49.4266 11.6524C49.4266 11.7394 49.3918 11.8437 49.3396 11.8959C49.0788 12.1742 48.9048 12.5046 48.7831 12.8524C48.7483 12.9394 48.6614 13.0437 48.5744 13.0785C48.2614 13.235 48.1222 13.1481 48.1396 12.8002C48.1918 12.0524 48.6092 11.5307 49.2527 11.1655C49.2875 11.1481 49.357 11.1307 49.4092 11.1133L49.3918 11.1307Z" fill="url(#paint7_linear_1001_11492)"/>
<path d="M58.3313 30.9033C58.3313 30.9033 58.9921 31.6685 59.9313 31.0598C59.9313 31.0598 61.0791 31.8772 61.8269 30.5207C61.8269 30.5207 63.3747 30.2424 63.4791 28.712C63.4791 28.712 66.14 29.0077 66.3313 26.2424L66.2617 25.9468C66.2617 25.9468 67.6704 25.7207 67.8269 24.4164C67.8269 24.4164 67.8095 23.5816 67.4443 23.1642C67.4443 23.1642 69.2182 22.5033 69.2356 21.0598C69.2704 19.6163 68.2617 18.7468 68.2617 18.7468C68.2617 18.7468 69.4965 17.7729 69.74 15.999C70.0008 14.225 68.366 12.7816 68.366 12.7816C68.366 12.7816 67.1834 12.0164 66.2791 12.1381C66.2791 12.1381 66.4704 10.4337 65.8443 9.58157C65.2182 8.72939 64.3834 8.57287 64.3834 8.57287C64.3834 8.57287 63.8443 8.36418 63.0443 8.67723C63.0443 8.67723 62.9226 7.82504 61.7052 7.49461C61.7052 7.49461 60.6095 7.42504 60.366 8.01635C60.366 8.01635 60.2791 7.09461 59.0269 7.18157C57.7747 7.26852 58.0008 9.54679 58.0008 9.54679C58.0008 9.54679 57.3747 11.4772 58.3139 12.3642L58.6269 12.6598C58.6269 12.6598 58.0182 12.7294 57.9139 13.9468C57.8095 15.1642 57.9139 16.5381 57.9139 16.5381C57.9313 16.712 58.0008 16.9729 58.14 17.2511C58.3139 17.5816 58.5226 17.8077 58.6617 17.9294C58.9226 17.9294 59.166 17.9294 59.4269 17.9468C59.4269 17.9468 58.6443 17.9294 58.366 18.3294C58.0878 18.7294 57.8791 20.9555 58.0008 23.1816C58.1226 25.3903 58.4356 25.2511 58.4356 25.2511L58.9747 25.512C58.9747 25.512 58.453 25.3381 58.0704 26.3816C57.6878 27.4424 58.1747 28.5555 58.1747 28.5555C58.1747 28.5555 57.5486 29.6337 58.366 30.9381L58.3313 30.9033Z" fill="#0C5178"/>
<path d="M58.5402 30.833C58.5402 30.833 59.2011 31.5982 60.1402 30.9895C60.1402 30.9895 61.2881 31.8069 62.0359 30.4504C62.0359 30.4504 63.5837 30.1721 63.6881 28.6417C63.6881 28.6417 66.3489 28.9373 66.5402 26.1721L66.4707 25.8765C66.4707 25.8765 67.8794 25.6504 68.0359 24.346C68.0359 24.346 68.0185 23.5112 67.6533 23.0939C67.6533 23.0939 69.4272 22.433 69.4446 20.9895C69.4794 19.546 68.4707 18.6765 68.4707 18.6765C68.4707 18.6765 69.7055 17.7026 69.9489 15.9286C70.2098 14.1547 68.575 12.7112 68.575 12.7112C68.575 12.7112 67.3924 11.946 66.4881 12.0678C66.4881 12.0678 66.6794 10.3634 66.0533 9.51125C65.4272 8.65908 64.5924 8.50256 64.5924 8.50256C64.5924 8.50256 64.0533 8.29386 63.2533 8.6069C63.2533 8.6069 63.1315 7.75473 61.9142 7.4243C61.9142 7.4243 60.8185 7.35473 60.575 7.94604C60.575 7.94604 60.4881 7.0243 59.2359 7.11126C57.9837 7.19821 58.2098 9.47647 58.2098 9.47647C58.2098 9.47647 57.5837 11.4069 58.5229 12.2939L58.8359 12.5895C58.8359 12.5895 58.2272 12.6591 58.1229 13.8765C58.0185 15.0939 58.1229 16.4678 58.1229 16.4678C58.1402 16.6417 58.2098 16.9026 58.3489 17.1808C58.5229 17.5112 58.7315 17.7373 58.8707 17.8591C59.1315 17.8591 59.375 17.8591 59.6359 17.8765C59.6359 17.8765 58.8533 17.8591 58.575 18.2591C58.2968 18.6591 58.0881 20.8852 58.2098 23.1113C58.3315 25.32 58.6446 25.1808 58.6446 25.1808L59.1837 25.4417C59.1837 25.4417 58.662 25.2678 58.2794 26.3112C57.8968 27.3721 58.3837 28.4852 58.3837 28.4852C58.3837 28.4852 57.7576 29.5634 58.575 30.8678L58.5402 30.833Z" fill="url(#paint8_linear_1001_11492)"/>
</g>
<defs>
<linearGradient id="paint0_linear_1001_11492" x1="51.4963" y1="12.4515" x2="57.305" y2="12.4515" gradientUnits="userSpaceOnUse">
<stop stop-color="#E86031"/>
<stop offset="1" stop-color="#EF9D43"/>
</linearGradient>
<linearGradient id="paint1_linear_1001_11492" x1="46.0879" y1="21.1283" x2="57.3401" y2="21.1283" gradientUnits="userSpaceOnUse">
<stop stop-color="#E86031"/>
<stop offset="0.9" stop-color="#EF9D43"/>
</linearGradient>
<linearGradient id="paint2_linear_1001_11492" x1="46.2618" y1="24.2264" x2="56.8357" y2="24.2264" gradientUnits="userSpaceOnUse">
<stop stop-color="#E86031"/>
<stop offset="0.9" stop-color="#EF9D43"/>
</linearGradient>
<linearGradient id="paint3_linear_1001_11492" x1="46.5397" y1="12.7125" x2="53.1658" y2="12.7125" gradientUnits="userSpaceOnUse">
<stop stop-color="#E86031"/>
<stop offset="1" stop-color="#EF9D43"/>
</linearGradient>
<linearGradient id="paint4_linear_1001_11492" x1="46.8528" y1="27.5476" x2="56.905" y2="27.5476" gradientUnits="userSpaceOnUse">
<stop stop-color="#E86031"/>
<stop offset="1" stop-color="#EF9D43"/>
</linearGradient>
<linearGradient id="paint5_linear_1001_11492" x1="53.027" y1="30.0696" x2="57.0792" y2="30.0696" gradientUnits="userSpaceOnUse">
<stop stop-color="#E86031"/>
<stop offset="1" stop-color="#EF9D43"/>
</linearGradient>
<linearGradient id="paint6_linear_1001_11492" x1="49.0963" y1="29.0781" x2="52.7832" y2="29.0781" gradientUnits="userSpaceOnUse">
<stop stop-color="#E86031"/>
<stop offset="1" stop-color="#EF9D43"/>
</linearGradient>
<linearGradient id="paint7_linear_1001_11492" x1="48.1396" y1="12.1394" x2="49.4266" y2="12.1394" gradientUnits="userSpaceOnUse">
<stop stop-color="#E86031"/>
<stop offset="1" stop-color="#EF9D43"/>
</linearGradient>
<linearGradient id="paint8_linear_1001_11492" x1="57.9663" y1="19.1634" x2="69.9663" y2="19.1634" gradientUnits="userSpaceOnUse">
<stop stop-color="#2E6C97"/>
<stop offset="0.8" stop-color="#46A2D7"/>
</linearGradient>
<clipPath id="clip0_1001_11492">
<rect width="194.783" height="32" fill="white"/>
</clipPath>
</defs>
</svg>
